<?xml version="1.0" standalone="no"?>
<!DOCTYPE svg PUBLIC "-//W3C//DTD SVG 20010904//EN"
 "http://www.w3.org/TR/2001/REC-SVG-20010904/DTD/svg10.dtd">
<svg version="1.0" xmlns="http://www.w3.org/2000/svg"
 width="512.000000pt" height="383.000000pt" viewBox="0 0 512.000000 383.000000"
 preserveAspectRatio="xMidYMid meet">

<g transform="translate(0.000000,383.000000) scale(0.100000,-0.100000)"
fill="#000000" stroke="none">
<path d="M1720 2953 c-28 -3 -57 -14 -79 -30 -42 -33 -91 -134 -91 -190 0 -36
5 -46 36 -71 19 -16 59 -37 87 -46 47 -16 207 -40 214 -33 1 2 -7 27 -18 56
-22 60 -19 95 12 136 21 25 56 36 44 13 -4 -7 1 -4 9 6 9 11 16 30 16 43 0 29
-56 92 -97 109 -32 14 -44 14 -133 7z"/>
<path d="M1494 2578 c-38 -18 -46 -52 -33 -140 10 -72 13 -78 32 -72 19 6 20
3 15 -121 -3 -70 -10 -130 -15 -133 -10 -7 -57 -110 -67 -147 -3 -11 -12 -103
-21 -205 -30 -356 -86 -644 -160 -831 -52 -129 -154 -331 -164 -324 -5 2 -12
-3 -15 -12 -8 -20 18 -42 76 -69 31 -14 40 -14 53 -4 8 7 15 18 15 25 0 7 7
18 16 26 27 22 173 247 216 333 64 128 86 195 128 399 56 269 55 266 63 182
21 -214 4 -448 -64 -890 -25 -162 -35 -203 -50 -214 -44 -32 -19 -49 82 -58
63 -5 67 -4 74 17 4 12 3 25 -3 29 -6 4 10 79 44 199 77 277 124 495 136 635
10 121 -1 478 -22 722 -6 65 -5 104 2 112 5 7 7 16 4 22 -5 8 39 194 51 215 3
4 8 3 12 -2 4 -6 31 14 64 45 56 54 58 57 46 85 -24 58 -70 110 -116 130 -104
46 -343 74 -399 46z"/>
<path d="M2067 2528 c-15 -12 -13 -27 23 -198 22 -102 40 -188 40 -192 0 -9
54 7 88 27 l29 18 -39 126 c-21 69 -46 150 -54 179 -14 46 -18 52 -43 52 -15
0 -35 -6 -44 -12z"/>
<path d="M2203 2095 c-29 -13 -53 -29 -53 -36 0 -23 122 -537 206 -869 84
-332 133 -499 181 -615 33 -80 41 -89 61 -69 9 9 25 14 40 11 l25 -5 -7 77
c-16 172 -114 572 -307 1243 -43 153 -79 280 -79 283 0 9 -13 5 -67 -20z"/>
<path d="M988 471 l-33 -30 75 -75 c88 -90 139 -104 95 -26 -8 14 -15 39 -16
55 -1 22 -12 40 -44 68 l-43 38 -34 -30z"/>
<path d="M2645 370 c-4 -6 -2 -16 3 -23 6 -7 13 -29 17 -49 4 -21 10 -38 14
-38 8 0 -11 105 -21 115 -3 3 -9 1 -13 -5z"/>
<path d="M2940 276 c0 -2 9 -6 20 -9 11 -3 20 -1 20 4 0 5 -9 9 -20 9 -11 0
-20 -2 -20 -4z"/>
<path d="M3153 263 c9 -2 23 -2 30 0 6 3 -1 5 -18 5 -16 0 -22 -2 -12 -5z"/>
<path d="M3180 229 c0 -5 9 -9 20 -9 11 0 20 2 20 4 0 2 -9 6 -20 9 -11 3 -20
1 -20 -4z"/>
<path d="M3493 233 c9 -2 23 -2 30 0 6 3 -1 5 -18 5 -16 0 -22 -2 -12 -5z"/>
<path d="M3598 233 c7 -3 16 -2 19 1 4 3 -2 6 -13 5 -11 0 -14 -3 -6 -6z"/>
<path d="M1516 189 c-12 -61 -16 -59 114 -59 111 0 120 1 120 19 0 13 -10 21
-34 25 -19 4 -45 15 -59 26 -18 14 -41 20 -80 20 -53 0 -55 -1 -61 -31z"/>
</g>
</svg>
